<svg xmlns="http://www.w3.org/2000/svg" viewBox="0 0 1200 720" role="img" aria-label="Abstract developer project preview">
  <defs>
    <linearGradient id="bg" x1="0" x2="1" y1="0" y2="1">
      <stop offset="0" stop-color="#101827"/>
      <stop offset=".5" stop-color="#14315f"/>
      <stop offset="1" stop-color="#0f766e"/>
    </linearGradient>
    <linearGradient id="panel" x1="0" x2="1">
      <stop offset="0" stop-color="#ffffff" stop-opacity=".28"/>
      <stop offset="1" stop-color="#ffffff" stop-opacity=".08"/>
    </linearGradient>
  </defs>
  <rect width="1200" height="720" fill="url(#bg)"/>
  <circle cx="1030" cy="130" r="170" fill="#22d3ee" opacity=".22"/>
  <circle cx="190" cy="600" r="220" fill="#f59e0b" opacity=".18"/>
  <rect x="150" y="120" width="900" height="480" rx="34" fill="url(#panel)" stroke="#fff" stroke-opacity=".28"/>
  <rect x="210" y="185" width="300" height="26" rx="13" fill="#f8fafc" opacity=".85"/>
  <rect x="210" y="245" width="520" height="22" rx="11" fill="#e2e8f0" opacity=".45"/>
  <rect x="210" y="292" width="410" height="22" rx="11" fill="#e2e8f0" opacity=".35"/>
  <rect x="210" y="380" width="170" height="58" rx="18" fill="#22c55e"/>
  <rect x="410" y="380" width="170" height="58" rx="18" fill="#0ea5e9"/>
  <rect x="720" y="210" width="230" height="250" rx="28" fill="#020617" opacity=".55"/>
  <path d="M790 295 745 340l45 45M880 295l45 45-45 45" fill="none" stroke="#67e8f9" stroke-width="24" stroke-linecap="round" stroke-linejoin="round"/>
  <path d="m850 275-40 130" fill="none" stroke="#fde68a" stroke-width="20" stroke-linecap="round"/>
</svg>
